#!OML:ASF F:\VICON\USERDATA\INSTALL\rory3\rory3.ASF
:FULLY-SPECIFIED
:DEGREES
199
root 0.123115 17.8935 7.76104 -1.10272 -6.8533 -7.25149
lowerback 9.18463 2.04334 6.84231
upperback 0.709324 3.51161 2.15919
thorax -4.13832 1.63035 -2.02013
lowerneck -16.2242 -2.87618 -1.37028
upperneck 20.7896 -3.79874 0.659082
head 9.2614 -1.80912 -0.0269411
rclavicle -1.6555e-014 -1.7344e-014
rhumerus -20.8278 -8.45709 -83.4008
rradius 29.2796
rwrist 0.155387
rhand -19.0513 22.1115
rfingers 7.12502
rthumb 7.25559 -7.74411
lclavicle -1.6555e-014 -1.7344e-014
lhumerus -35.4125 4.89217 84.1531
lradius 22.3697
lwrist 3.9641
lhand -27.3 21.1514
lfingers 7.12502
lthumb -0.709876 51.13
rfemur 5.54869 8.03899 34.6628
rtibia 25.34
rfoot -20.5693 -7.00506
rtoes 1.12457
lfemur -23.7438 -9.67309 -7.06997
ltibia 10.8753
lfoot -6.18838 12.1249
ltoes -2.61035
200
root 0.129686 17.8742 7.93222 -0.938313 -6.84282 -7.41247
lowerback 9.17894 2.04256 6.98028
upperback 0.564619 3.53512 2.19795
thorax -4.27973 1.63195 -2.06234
lowerneck -16.0997 -2.90518 -1.43914
upperneck 20.7924 -3.82958 0.687417
head 9.24188 -1.82658 -0.00790071
rclavicle 2.84293e-014 2.54941e-014
rhumerus -21.1329 -8.63798 -83.3146
rradius 29.6605
rwrist 0.343928
rhand -18.9646 22.7518
rfingers 7.12502
rthumb 7.33928 -7.10086
lclavicle 2.84293e-014 2.54941e-014
lhumerus -35.8455 5.28856 83.9859
lradius 22.3936
lwrist 3.30433
lhand -26.7737 22.7389
lfingers 7.12502
lthumb -0.201561 52.7186
rfemur 6.08539 8.02459 34.8192
rtibia 25.186
rfoot -20.4601 -7.09058
rtoes 1.45462
lfemur -23.8947 -9.4264 -6.93419
ltibia 10.0716
lfoot -6.91499 13.3515
ltoes -1.50174
201
root 0.136065 17.861 8.11396 -0.840363 -6.74092 -7.43355
lowerback 9.11862 1.98896 6.94594
upperback 0.415175 3.46591 2.22436
thorax -4.4126 1.59128 -2.00881
lowerneck -16.1977 -2.891 -1.6131
upperneck 21.1497 -3.79678 0.804716
head 9.39043 -1.80979 0.0608117
rclavicle -1.28899e-014 -1.1281e-014
rhumerus -21.4855 -8.68351 -83.2742
rradius 30.0082
rwrist 0.6148
rhand -19.3377 22.5005
rfingers 7.12502
rthumb 6.97921 -7.36448
lclavicle -1.28899e-014 -1.1281e-014
lhumerus -36.214 6.00436 83.6197
lradius 22.4103
lwrist 1.38405
lhand -24.9396 27.2868
lfingers 7.12502
lthumb 1.56991 57.2608
rfemur 6.7285 8.06905 34.8208
rtibia 25.0314
rfoot -20.2562 -7.04092
rtoes 3.64659
lfemur -24.1761 -8.59518 -7.25759
ltibia 10.0274
lfoot -7.15242 13.3988
ltoes -2.76045
202
root 0.1462 17.8439 8.28871 -0.788639 -6.51369 -7.61108
lowerback 9.20141 1.87771 7.08681
upperback 0.382884 3.34497 2.27464
thorax -4.49847 1.52537 -2.02483
lowerneck -16.4568 -2.86762 -1.52933
upperneck 21.208 -3.76966 0.746783
head 9.45541 -1.79511 0.0261223
rclavicle -1.52195e-016 4.87022e-015
rhumerus -21.1877 -8.79894 -83.2898
rradius 29.7116
rwrist 0.672086
rhand -19.967 21.7965
rfingers 7.12502
rthumb 6.37164 -8.08771
lclavicle -1.52195e-016 4.87022e-015
lhumerus -36.305 5.8741 83.8123
lradius 21.7066
lwrist 2.92714
lhand -27.358 22.5998
lfingers 7.12502
lthumb -0.765879 52.5781
rfemur 7.33694 8.10775 35.0235
rtibia 24.9118
rfoot -20.6219 -6.60925
rtoes 2.09542
lfemur -24.578 -7.42023 -7.64811
ltibia 10.4502
lfoot -6.80803 12.7881
ltoes -2.10111
203
root 0.15991 17.8262 8.4634 -0.752556 -6.19804 -7.66308
lowerback 9.26203 1.76015 7.20025
upperback 0.380423 3.20486 2.23684
thorax -4.53869 1.45199 -2.11316
lowerneck -16.8057 -2.87776 -1.28337
upperneck 21.1849 -3.80663 0.587096
head 9.50346 -1.80864 -0.0795548
rclavicle 1.52909e-014 1.7344e-014
rhumerus -20.7455 -9.12466 -83.2944
rradius 29.2112
rwrist 0.691596
rhand -19.8888 21.9458
rfingers 7.12502
rthumb 6.4472 -7.93604
lclavicle 1.52909e-014 1.7344e-014
lhumerus -36.3181 6.13021 83.6725
lradius 21.3253
lwrist 2.74508
lhand -27.8388 21.3142
lfingers 7.12502
lthumb -1.23026 51.2903
rfemur 7.9039 7.99617 35.0613
rtibia 24.8829
rfoot -20.4361 -6.32187
rtoes -0.66369
lfemur -25.0513 -6.47795 -8.20131
ltibia 11.1771
lfoot -6.90226 12.5735
ltoes 3.60935
204
root 0.175053 17.8134 8.65027 -0.84749 -5.92129 -7.51995
lowerback 9.26603 1.69066 7.10333
upperback 0.38104 3.1026 2.22842
thorax -4.55358 1.40312 -2.05619
lowerneck -16.6987 -2.91845 -1.32552
upperneck 20.9553 -3.84245 0.558599
head 9.40393 -1.83379 -0.0833591
rclavicle 8.69062e-015 -3.03147e-015
rhumerus -20.7614 -9.40431 -83.1178
rradius 29.1793
rwrist 0.655473
rhand -19.4864 22.2874
rfingers 7.12502
rthumb 6.83564 -7.58224
lclavicle 8.69062e-015 -3.03147e-015
lhumerus -36.2626 6.61209 83.5283
lradius 20.6927
lwrist 1.52789
lhand -27.6289 21.2076
lfingers 7.12502
lthumb -1.02748 51.1849
rfemur 8.62629 7.8908 34.8849
rtibia 24.975
rfoot -20.3547 -6.119
rtoes -2.23777
lfemur -25.405 -5.51661 -9.05226
ltibia 12.1477
lfoot -6.59412 12.4326
ltoes 5.23141
205
root 0.187249 17.8015 8.83023 -1.05832 -5.71037 -7.50322
lowerback 9.47732 1.67312 7.10281
upperback 0.432519 3.09646 2.23827
thorax -4.6191 1.3988 -2.05247
lowerneck -16.556 -2.93291 -1.42625
upperneck 20.6464 -3.849 0.630919
head 9.27384 -1.83894 -0.0377679
rclavicle -5.60945e-015 2.56929e-014
rhumerus -20.8983 -9.79517 -82.951
rradius 29.3913
rwrist 0.647476
rhand -19.5131 22.3483
rfingers 7.12502
rthumb 6.80983 -7.52213
lclavicle -5.60945e-015 2.56929e-014
lhumerus -36.1486 6.72301 83.5733
lradius 20.2199
lwrist 1.54565
lhand -27.7942 20.4905
lfingers 7.12502
lthumb -1.18715 50.467
rfemur 9.30069 7.7382 34.8533
rtibia 25.2871
rfoot -20.0829 -5.89258
rtoes -2.26282
lfemur -25.5127 -4.74382 -9.67585
ltibia 12.9821
lfoot -5.31841 12.205
ltoes -0.206994
206
root 0.196022 17.7906 9.01287 -1.19353 -5.62931 -7.5259
lowerback 9.41501 1.68278 7.05972
upperback 0.610556 3.08868 2.26675
thorax -4.40105 1.40728 -1.99163
lowerneck -16.6708 -2.94199 -1.45541
upperneck 20.408 -3.85797 0.6748
head 9.2138 -1.84084 -0.0188151
rclavicle -3.12775e-015 -1.16289e-014
rhumerus -20.7773 -10.0061 -82.9176
rradius 29.4466
rwrist 0.472498
rhand -19.7613 22.4906
rfingers 7.12502
rthumb 6.57026 -7.38751
lclavicle -3.12775e-015 -1.16289e-014
lhumerus -35.9804 7.32425 83.365
lradius 20.0471
lwrist 1.73305
lhand -27.4797 20.59
lfingers 7.12502
lthumb -0.883387 50.5679
rfemur 9.79645 7.65034 34.8478
rtibia 25.8173
rfoot -19.6331 -5.65341
rtoes -2.63157
lfemur -25.5076 -4.07293 -10.1225
ltibia 13.6757
lfoot -6.62462 11.8135
ltoes 1.67879
207
root 0.206625 17.7735 9.20407 -1.359 -5.78945 -7.35497
lowerback 9.39425 1.76825 6.79444
upperback 0.727337 3.16434 2.25158
thorax -4.27326 1.45629 -1.86602
lowerneck -16.9136 -3.08552 -1.52101
upperneck 20.4635 -4.04449 0.706342
head 9.28193 -1.92763 -0.0256924
rclavicle 2.92307e-014 -1.25731e-014
rhumerus -20.8345 -10.2321 -82.8388
rradius 29.455
rwrist 0.364018
rhand -19.8706 22.4499
rfingers 7.12502
rthumb 6.46472 -7.4314
lclavicle 2.92307e-014 -1.25731e-014
lhumerus -35.8665 8.05216 82.9861
lradius 19.7554
lwrist 1.02549
lhand -25.9236 22.2364
lfingers 7.12502
lthumb 0.619539 52.2153
rfemur 10.2461 7.7979 34.6547
rtibia 26.568
rfoot -19.3375 -5.39942
rtoes -2.68969
lfemur -25.3291 -3.89242 -10.4956
ltibia 14.202
lfoot -6.11187 11.2696
ltoes 0.596133
208
root 0.218971 17.7501 9.40268 -1.70244 -6.2367 -7.28866
lowerback 9.61183 1.92253 6.65913
upperback 0.830373 3.36638 2.22157
thorax -4.27635 1.55993 -1.8535
lowerneck -16.8087 -3.22596 -1.44312
upperneck 20.3116 -4.26302 0.719398
head 9.21086 -2.02367 -0.0591014
rclavicle -2.16427e-014 -8.10048e-015
rhumerus -21.0648 -10.5005 -82.8454
rradius 29.4139
rwrist 0.220173
rhand -20.0142 21.9725
rfingers 7.12502
rthumb 6.32613 -7.91299
lclavicle -2.16427e-014 -8.10048e-015
lhumerus -35.9168 8.1374 82.8032
lradius 19.5353
lwrist 0.159561
lhand -25.0004 23.7329
lfingers 7.12502
lthumb 1.51118 53.7073
rfemur 10.8699 8.02703 34.6018
rtibia 27.4253
rfoot -19.0869 -5.20192
rtoes -3.88492
lfemur -24.7549 -4.46389 -10.3715
ltibia 14.4817
lfoot -6.55628 11.1469
ltoes 2.52755
